<?xml version="1.0" encoding="utf-8"?>
<!-- Generator: Adobe Illustrator 26.2.1, SVG Export Plug-In . SVG Version: 6.00 Build 0)  -->
<svg version="1.1" id="Layer_1" xmlns="http://www.w3.org/2000/svg" xmlns:xlink="http://www.w3.org/1999/xlink" x="0px" y="0px"
	 viewBox="0 0 908 438" style="enable-background:new 0 0 908 438;" xml:space="preserve">
<style type="text/css">
	.st0{fill:#F40F0F;}
	.st1{fill:#FFFFFF;}
	.st2{fill:#E31518;}
</style>
<circle class="st0" cx="425" cy="218.7" r="153.9"/>
<path class="st1" d="M400.5,234.2c3.2-6.6,1.7-14.4-3.7-19.4c-1.2-1-2.3-2.1-3.4-3.2c-3.2-3.9-2.8-9.3-1.7-14.1
	c4.7,5.2,9.9,10.6,12.4,16.8s2.5,13.6-2,18.9"/>
<path class="st1" d="M358.8,315.3c3.8,0.7,7.5,1.9,11.1,3.4c4.3,1.7,8.5,3.6,12.6,5.9c3.7,2.1,6.4,4.8,9.8,7.7
	c4.5,4,9.3,7.7,14.4,11c4.8,3.1,10,5.8,15.6,6.9c5.4,1.1,11.1,0.5,16.1-1.7c5.5-2.5,10.6-5.8,15-9.9c2.2-2,4.3-4,6.4-6.1
	c1.6-1.7,3.1-3.5,4.9-5c4.1-3.4,8.7-6.2,13.5-8.4c4.2-2,9.1-4.2,13.8-4.3c2.4,0,2.4-3.8,0-3.8c-4.4,0.1-8.8,1.8-12.8,3.5
	c-4.6,2-8.9,4.4-13,7.1c-1.8,1.2-3.5,2.5-5.1,4c-1.9,1.7-3.5,3.7-5.3,5.5c-4.1,4.3-8.6,8-13.6,11.2c-4.8,2.9-10.2,5-15.9,4.6
	c-5.3-0.3-10.4-2.7-15-5.3c-5.1-3.1-9.9-6.6-14.4-10.4c-3.5-3-6.8-6.4-10.7-8.9c-4.4-2.6-9-4.8-13.7-6.7c-4-1.6-8.3-3.4-12.6-4
	c-1-0.2-2,0.4-2.3,1.3C357.1,314,357.7,315.1,358.8,315.3L358.8,315.3z"/>
<path class="st1" d="M473,123.3c4-0.3,7.7-1.8,10.8-4.3c7-5.5,15.4-11.5,24.7-10.1c9.8,1.5,15.7,11.1,15.3,19.7
	c0,1.6-0.4,3.2-0.9,4.7c-0.9,2.2-2.7,4.1-4,6.1c-5.2,7.6-5.3,17-5.2,25.8c-4.9-2.5-4.9-8.8-8.6-12.5c-2.5-2.5-6.2-3.6-9.5-5.2
	c-10.3-5.2-16-16.3-27.3-19.3c12.8,3.5,22.9,11.9,34.5,17.7c1.1,0.6,2.6,1.1,3.6,0.4c0.6-0.6,1-1.3,1-2.1c0.8-3.4,2.8-6.3,5.6-8.3
	c0.9-0.5,1.8-1.2,2.4-2.1c0.5-0.9,0.7-1.8,0.6-2.8l0.2-7.1c0.1-2.2,0.1-4.6-1.3-6.5c-1.6-2.2-4.8-3.2-7.9-3.2c-3,0.2-5.9,0.9-8.7,2
	C490.9,118.9,481.1,124.2,473,123.3"/>
<path class="st1" d="M372,123.3c-4-0.3-7.8-1.8-10.9-4.3c-7-5.5-15.4-11.5-24.7-10.1c-9.8,1.5-15.7,11.1-15.3,19.7
	c0,1.6,0.3,3.2,0.9,4.7c0.9,2.2,2.7,4.1,4,6.1c5.2,7.6,5.3,17,5.2,25.8c4.9-2.5,4.9-8.8,8.6-12.5c2.4-2.5,6.2-3.6,9.5-5.2
	c10.3-5.2,16-16.3,27.3-19.3c-12.8,3.5-22.9,11.9-34.5,17.7c-1.1,0.6-2.6,1.1-3.7,0.4c-0.6-0.6-1-1.3-1-2.1
	c-0.8-3.4-2.8-6.3-5.6-8.3c-0.9-0.5-1.8-1.2-2.4-2.1c-0.5-0.9-0.7-1.8-0.6-2.8l-0.2-7.1c-0.1-2.2-0.1-4.6,1.3-6.5
	c1.6-2.2,4.8-3.2,7.9-3.2c3,0.2,5.9,0.9,8.7,2C354,118.9,363.9,124.2,372,123.3"/>
<path class="st1" d="M371.1,125.8c9.9-6.2,21.7-8.7,33.2-7c3.3,0.5,15.7,4.2,19.1,4.4c7.9,0.5,6.8-2.4,16.1-3.7
	c6.2-0.7,12.5-0.2,18.5,1.5c7.3,2.1,12.3,3.6,19.6,6c-16.4-3.6-34.7-5.8-49.9,0.4c-1.7,0.6-3.5,0.9-5.4,0.8c-1.5,0-3-0.3-4.5-0.9
	C402.6,121.3,386,120.4,371.1,125.8"/>
<path class="st1" d="M511,161.7c12.6,15,19.9,33.7,21,53.3c0.3,5.5,0.1,11-0.6,16.5h3.6c-3.4-9.1-9.4-17-17.3-22.7
	c-1.5-1.1-3.7,1.1-2.6,2.6c10.1,13.9,6.7,32.4,3.4,48h3.6c-3-9-8.2-17.1-15.1-23.7c-1.6-1.6-3.8,0.4-2.9,2.3
	c7.1,16.1,10.1,33.8,8.8,51.4c-0.4,5-1.2,9.9-2.3,14.8l3.7,0.5c-0.9-9-5.7-17.2-13-22.5c-0.9-0.5-2.1-0.1-2.5,0.9
	c-0.4,0.8-0.1,1.9,0.6,2.4c6.2,4.6,10.3,11.6,11.1,19.3c0.2,2,3.2,2.7,3.7,0.5c4.1-18,3.6-36.8-1.5-54.5c-1.4-5-3.2-9.9-5.3-14.6
	l-3,2.3c6.4,6.1,11.3,13.7,14.1,22.1c0.6,1.6,3.2,1.9,3.6,0c2.8-13.1,5.5-27.6,1.4-40.7c-1.1-3.6-2.9-7.1-5.1-10.2l-2.6,2.6
	c7.1,5.2,12.5,12.3,15.5,20.4c0.2,0.8,1,1.3,1.8,1.4c0.8,0,1.6-0.6,1.8-1.4c3.6-26.4-4.1-53.1-21.3-73.4
	C512.1,157.2,509.5,159.9,511,161.7L511,161.7z"/>
<path class="st1" d="M330.2,160c-13.3,15.9-21,35.6-22.1,56.3c-0.3,5.8,0,11.7,0.8,17.5c0.2,0.8,1,1.4,1.8,1.4
	c0.8,0,1.6-0.6,1.8-1.4c3.1-8.2,8.5-15.4,15.5-20.6l-2.6-2.6c-8.3,11.4-8,26.2-6,39.5c0.6,3.9,1.4,7.8,2.2,11.7
	c0.4,1.9,3.1,1.6,3.6,0c2.9-8.4,7.7-16,14.1-22.2l-2.9-2.3c-7.5,16.9-10.7,35.4-9.3,53.9c0.4,5.2,1.2,10.5,2.4,15.6
	c0.5,2.2,3.5,1.5,3.7-0.5c0.9-7.7,4.9-14.7,11.2-19.4c0.9-0.5,1.2-1.7,0.7-2.6c-0.5-0.9-1.7-1.2-2.6-0.7c-7.4,5.4-12.1,13.6-13,22.6
	l3.7-0.5c-3.9-17.3-3.4-35.4,1.4-52.5c1.3-4.8,3-9.5,5.1-14.1c0.8-1.9-1.3-3.8-3-2.3c-6.9,6.6-12,14.8-15.1,23.8h3.6
	c-3.3-15.7-6.7-34.3,3.4-48.3c1.1-1.5-1.1-3.7-2.6-2.6c-7.9,5.7-13.9,13.7-17.3,22.8h3.6c-2.5-19.5,1.3-39.4,11-56.5
	c2.7-4.8,5.9-9.4,9.4-13.6C334.4,160.8,331.8,158.2,330.2,160L330.2,160z"/>
<path class="st1" d="M442.8,234.2c-3.2-6.6-1.7-14.4,3.7-19.4c1.2-1,2.3-2.1,3.4-3.2c3.2-3.9,2.8-9.3,1.7-14.1
	c-4.6,5.2-9.9,10.6-12.4,16.8s-2.5,13.6,2,18.9"/>
<path class="st1" d="M396.2,206.2c-0.2,1.9-1.4,5.6-2.6,6.5s-3.1,2.6-5,2.8c-2.3,0.5-4.6,0.5-6.9,0c-3.5-0.7-9.5-1.7-11.1-4.9
	s-2.3-4.2-2.6-7.3s-0.9-5.1-2.8-6.1c-2.4-1.1-5-1.7-7.6-1.6c-1.9,0.2-8.6,1.9-10,3.1c-1.7,1.6-2.8,3.7-3,6.1c-0.1,0.7,0,4.9,0,4.9
	c-0.8-3.3-1.5-6.6-1.9-10c-0.2-3.4,1.2-6.1,3.1-7.2c1.9-1.2,4.8-3,6.7-3c1.9,0,5.4,0,7.8,1.1c2.4,1.1,7.4,4.2,9.1,4.4
	s18.3,0,20.9,1.4c2,1.1,3.6,2.8,4.5,4.9C395.3,202.9,395.8,204.5,396.2,206.2z"/>
<path class="st1" d="M447.7,206.2c0.2,1.9,1.4,5.6,2.6,6.5c1.2,0.9,3.1,2.6,5,2.8c2.3,0.5,4.6,0.5,6.9,0c3.5-0.7,9.5-1.7,11.1-4.9
	s2.3-4.2,2.6-7.3s1-5.1,2.8-6.1c2.4-1.1,4.9-1.7,7.6-1.6c1.9,0.2,8.6,1.9,10,3.1c1.7,1.6,2.8,3.7,3,6.1c0.1,0.7,0,4.9,0,4.9
	c0.8-3.3,1.5-6.6,1.9-10c0.2-3.4-1.2-6.1-3.1-7.2s-6.4-3.3-8.3-3.3c-2.1-0.1-4.2,0.4-6.1,1.4c-2.4,1.2-7.4,4.2-9.1,4.4
	s-18.3,0-20.9,1.4c-2,1.1-3.6,2.8-4.5,4.9C448.5,202.9,448,204.5,447.7,206.2z"/>
<path class="st2" d="M374.5,199.3c-3.1,1.2-2.3,10,1.8,12.2c2.5,1.3,5.4,1.4,8.2,1.5c1.3,0.1,2.6-0.1,3.9-0.6
	c1.2-0.6,2.1-1.5,2.7-2.7c1.3-2.4,1.2-5.3-0.1-7.7c0,1.4-0.8,2.7-2,3.4c-1.2,0.7-2.6,1.1-3.9,1.2c-1.4,0.3-3,0.5-4.2-0.3
	c-1.4-0.9-1.6-2.7-2.1-4.3C378.1,200.3,376.4,199.2,374.5,199.3"/>
<path class="st2" d="M468.9,199.3c3.1,1.2,2.3,10-1.8,12.2c-2.5,1.3-5.4,1.4-8.2,1.5c-1.3,0.1-2.6-0.1-3.9-0.6
	c-1.2-0.6-2.1-1.5-2.7-2.7c-1.3-2.4-1.2-5.3,0.1-7.7c0,1.4,0.8,2.7,2,3.4c1.2,0.7,2.6,1.1,3.9,1.2c1.4,0.3,3,0.5,4.2-0.3
	c1.4-0.9,1.6-2.7,2.1-4.3C465.4,200.3,467.1,199.2,468.9,199.3"/>
<path class="st1" d="M484.7,274.3c0,0-16.3,18-20.6,19.6c-4.3,1.6-6.2,2.3-14,0c-7.8-2.3-15.5-6.2-17.1-9.1s-4.7-7.1-3.1-10.5
	c1.6-3.5,7-5.8,12-8.4s7.8-3.8,11.3-7.7s6.2-5.4,6.2-9.2s0.7-9.2-2.4-7.7c-3.1,1.5-2.7,5-4.6,8.1s-5,6.5-9.3,8.1
	c-4.3,1.5-6.6,0-8.5,2.7c-1.9,2.7-2.4,6.6-5.1,8.1s-4.2,0.8-6.2,0s-3.1-4.2-4.7-5.4s-3.1-4.2-7.4-5.4s-8.9-2.7-10.5-5
	c-1.6-2.3-2.7-6.9-3.9-8.8c-1.2-1.9-3.1-1.1-3.5,0.8s-1.9,5.8,0,8.4s7.8,9.2,10.9,10.4s11.3,5.4,12.8,6.9s3.9,3.8,3.9,6.5
	s-2.3,8.8-3.9,10s-11.6,7.9-15.9,8.8c-4.3,0.9-9.3,1.8-12,0c-2.7-1.8-23.3-22.6-22.5-20.6s3.5,6.9,3.1,8.8s-1.5,4.2,0,5.4
	s9.3,3.8,11.6,5.8s5.4,11.5,7,11.9s4.3-0.8,6.2-2.3s4.3-3.8,8.2-4.6c3.9-0.8,12.8-0.8,15.9,0c2.4,0.6,4.7,1.4,7,2.3
	c2.9-1.1,5.9-2,8.9-2.7c2.7-0.4,11.3-0.8,14.4,0.4s7.4,2.7,8.9,4.2s1.5,2.5,3.5,2.8s2.7-5.8,5.1-8.1s13.8-7.1,15.5-9.2
	c3.9-4.7,0.2-1.9,0.2-6.5C482.2,279.8,483.1,276.8,484.7,274.3z"/>
</svg>
