<svg id="Layer_1" data-name="Layer 1" xmlns="http://www.w3.org/2000/svg" viewBox="0 0 410 438"><defs><style>.cls-1{fill:#f40f0f;}.cls-2{fill:#fff;}.cls-3{fill:#e31518;}</style></defs><circle class="cls-1" cx="207.05" cy="218.74" r="153.88"/><path class="cls-2" d="M182.5,234.21a16.65,16.65,0,0,0-3.67-19.41,38.2,38.2,0,0,1-3.38-3.22c-3.18-3.92-2.79-9.33-1.72-14.05,4.65,5.18,9.91,10.55,12.43,16.75s2.49,13.6-2,18.91"/><path class="cls-2" d="M140.77,315.34a51.61,51.61,0,0,1,11.11,3.44,102,102,0,0,1,12.59,5.85c3.73,2.11,6.45,4.82,9.81,7.69a131.79,131.79,0,0,0,14.36,11c4.78,3.07,10,5.79,15.63,6.94a27.41,27.41,0,0,0,16.14-1.72,54.81,54.81,0,0,0,15-9.93c2.2-2,4.31-4,6.36-6.12,1.62-1.67,3.13-3.45,4.9-5a62.67,62.67,0,0,1,13.5-8.38c4.21-2,9.09-4.22,13.82-4.31,2.41-.05,2.42-3.8,0-3.75-4.42.08-8.75,1.75-12.76,3.47a76.68,76.68,0,0,0-13,7.15,42.25,42.25,0,0,0-5.12,4c-1.87,1.74-3.54,3.71-5.34,5.52a73.12,73.12,0,0,1-13.62,11.2c-4.82,2.92-10.25,5-15.95,4.61-5.32-.34-10.41-2.66-15-5.3a104.67,104.67,0,0,1-14.41-10.44c-3.52-2.95-6.81-6.42-10.73-8.86a89.39,89.39,0,0,0-13.74-6.68c-4-1.64-8.28-3.4-12.61-4a2,2,0,0,0-2.31,1.31,1.9,1.9,0,0,0,1.31,2.31Z"/><path class="cls-2" d="M255,123.35A19.81,19.81,0,0,0,265.83,119c7-5.52,15.4-11.47,24.69-10.06,9.81,1.49,15.71,11.06,15.33,19.72a13.79,13.79,0,0,1-.94,4.74c-.93,2.22-2.66,4.09-4,6.12-5.19,7.62-5.27,17-5.2,25.84-4.91-2.47-4.88-8.76-8.56-12.51-2.45-2.49-6.23-3.57-9.49-5.21-10.26-5.16-16-16.32-27.32-19.31,12.77,3.53,22.9,11.89,34.51,17.71,1.13.56,2.62,1.09,3.65.39a3.14,3.14,0,0,0,1-2.15,13.71,13.71,0,0,1,5.61-8.29,8.41,8.41,0,0,0,2.44-2.08,5.4,5.4,0,0,0,.61-2.82l.22-7.07c.07-2.23.09-4.62-1.27-6.51-1.6-2.23-4.84-3.25-7.86-3.19a29.49,29.49,0,0,0-8.74,2c-7.58,2.53-17.42,7.92-25.52,7"/><path class="cls-2" d="M154,123.35A19.81,19.81,0,0,1,143.11,119c-7-5.52-15.4-11.47-24.69-10.06-9.81,1.49-15.71,11.06-15.33,19.72a13.56,13.56,0,0,0,.94,4.74c.93,2.22,2.66,4.09,4,6.12,5.19,7.62,5.27,17,5.2,25.84,4.91-2.47,4.87-8.76,8.56-12.51,2.44-2.49,6.23-3.57,9.49-5.21,10.26-5.16,16-16.32,27.32-19.31-12.77,3.53-22.9,11.89-34.51,17.71-1.13.56-2.63,1.09-3.65.39a3.14,3.14,0,0,1-1-2.15,13.68,13.68,0,0,0-5.62-8.29,8.68,8.68,0,0,1-2.44-2.08,5.49,5.49,0,0,1-.61-2.82l-.21-7.07c-.07-2.23-.1-4.62,1.27-6.51,1.6-2.23,4.83-3.25,7.86-3.19a29.56,29.56,0,0,1,8.74,2c7.58,2.53,17.42,7.92,25.51,7"/><path class="cls-2" d="M153.09,125.8a48.75,48.75,0,0,1,33.22-7c3.33.51,15.71,4.25,19.08,4.45,7.92.46,6.81-2.36,16.14-3.66A46.31,46.31,0,0,1,240,121.12c7.34,2.08,12.33,3.62,19.59,6-16.36-3.61-34.68-5.79-49.86.36a12.87,12.87,0,0,1-5.37.81,13.35,13.35,0,0,1-4.47-.87c-15.26-6.09-31.91-7-46.76-1.58"/><path class="cls-2" d="M293,161.7a90.73,90.73,0,0,1,21,53.27,87.52,87.52,0,0,1-.64,16.5H317a49.36,49.36,0,0,0-17.26-22.69c-1.49-1.09-3.65,1.08-2.57,2.57,10.11,13.88,6.66,32.44,3.37,48h3.62a58.91,58.91,0,0,0-15.08-23.72c-1.62-1.55-3.78.39-2.94,2.27a106.39,106.39,0,0,1,8.75,51.41,104.36,104.36,0,0,1-2.28,14.83l3.68.5a31.76,31.76,0,0,0-13-22.52,1.88,1.88,0,0,0-1.89,3.24,27.67,27.67,0,0,1,11.11,19.28c.2,2,3.18,2.72,3.69.5a110.23,110.23,0,0,0-1.5-54.51A111.65,111.65,0,0,0,289.4,236l-2.95,2.27a54.89,54.89,0,0,1,14.11,22.06c.56,1.64,3.21,1.93,3.62,0,2.77-13.15,5.52-27.56,1.35-40.73a35.68,35.68,0,0,0-5.1-10.19L297.86,212a44.92,44.92,0,0,1,15.55,20.45,1.94,1.94,0,0,0,1.8,1.37,1.87,1.87,0,0,0,1.81-1.37,93.75,93.75,0,0,0-21.33-73.42c-1.56-1.85-4.2.82-2.65,2.65Z"/><path class="cls-2" d="M112.21,160a95.76,95.76,0,0,0-22.14,56.31,93,93,0,0,0,.77,17.49,1.89,1.89,0,0,0,1.81,1.38,2,2,0,0,0,1.81-1.38A45.28,45.28,0,0,1,110,213.21l-2.56-2.56c-8.27,11.42-8,26.16-6,39.49.59,3.92,1.36,7.81,2.17,11.69.4,1.93,3.07,1.63,3.62,0a55.41,55.41,0,0,1,14.12-22.19l-2.94-2.27a111.25,111.25,0,0,0-9.26,53.9,112.42,112.42,0,0,0,2.37,15.59c.5,2.2,3.49,1.47,3.69-.5A27.9,27.9,0,0,1,126.39,287a1.93,1.93,0,0,0,.68-2.56,1.91,1.91,0,0,0-2.57-.68,32,32,0,0,0-13,22.64l3.68-.5a107.16,107.16,0,0,1,1.43-52.47,103,103,0,0,1,5.08-14.13c.82-1.86-1.32-3.84-2.95-2.27a59.42,59.42,0,0,0-15.09,23.84h3.62c-3.28-15.67-6.72-34.32,3.4-48.29,1.07-1.49-1.08-3.66-2.57-2.56a49.68,49.68,0,0,0-17.28,22.8h3.62a91.31,91.31,0,0,1,11-56.51,88.66,88.66,0,0,1,9.41-13.64c1.55-1.83-1.09-4.5-2.65-2.65Z"/><path class="cls-2" d="M224.83,234.21a16.65,16.65,0,0,1,3.67-19.41,38.2,38.2,0,0,0,3.38-3.22c3.18-3.92,2.79-9.33,1.72-14.05-4.65,5.18-9.92,10.55-12.43,16.75s-2.49,13.6,2,18.91"/><path class="cls-2" d="M178.16,206.2c-.23,1.87-1.42,5.6-2.6,6.54s-3.07,2.57-5,2.8a16.33,16.33,0,0,1-6.86,0c-3.54-.7-9.48-1.66-11.14-4.88s-2.33-4.23-2.57-7.27-.94-5.14-2.83-6.07a17.66,17.66,0,0,0-7.57-1.64c-1.89.24-8.57,1.9-10,3.07a9.77,9.77,0,0,0-3,6.05c-.09.69,0,4.9,0,4.9a82.47,82.47,0,0,1-1.89-10c-.19-3.36,1.19-6.08,3.08-7.25s4.77-3,6.66-3,5.39,0,7.75,1.12,7.38,4.21,9.13,4.44,18.29,0,20.89,1.4a10.62,10.62,0,0,1,4.49,4.91A28.25,28.25,0,0,1,178.16,206.2Z"/><path class="cls-2" d="M229.7,206.2c.24,1.87,1.42,5.6,2.6,6.54s3.08,2.57,5,2.8a16.28,16.28,0,0,0,6.85,0c3.55-.7,9.49-1.66,11.14-4.88s2.33-4.23,2.57-7.27.95-5.14,2.84-6.07a17.65,17.65,0,0,1,7.56-1.64c1.89.24,8.57,1.9,10,3.07a9.72,9.72,0,0,1,3,6.05c.09.69,0,4.9,0,4.9a80.5,80.5,0,0,0,1.89-10c.19-3.36-1.18-6.08-3.07-7.25s-6.38-3.27-8.27-3.27a12.87,12.87,0,0,0-6.15,1.4c-2.36,1.17-7.37,4.21-9.12,4.44s-18.3,0-20.9,1.4a10.68,10.68,0,0,0-4.49,4.91A28.25,28.25,0,0,0,229.7,206.2Z"/><path class="cls-3" d="M156.53,199.33c-3.14,1.21-2.33,10,1.76,12.25,2.48,1.33,5.43,1.44,8.25,1.46a9.22,9.22,0,0,0,3.88-.55,5.94,5.94,0,0,0,2.68-2.68,8.25,8.25,0,0,0-.06-7.74,3.83,3.83,0,0,1-2,3.37,11.38,11.38,0,0,1-3.93,1.25c-1.44.26-3,.49-4.25-.33-1.36-.92-1.62-2.74-2.11-4.29a4.26,4.26,0,0,0-4.24-2.74"/><path class="cls-3" d="M250.93,199.33c3.15,1.21,2.33,10-1.76,12.25-2.48,1.33-5.43,1.44-8.25,1.46a9.22,9.22,0,0,1-3.88-.55,6,6,0,0,1-2.68-2.68,8.25,8.25,0,0,1,.06-7.74,3.83,3.83,0,0,0,2,3.37,11.38,11.38,0,0,0,3.93,1.25c1.44.26,3,.49,4.25-.33,1.36-.92,1.62-2.74,2.11-4.29a4.26,4.26,0,0,1,4.24-2.74"/><path class="cls-2" d="M266.68,274.28s-16.31,18-20.58,19.57-6.21,2.31-14,0-15.53-6.22-17.08-9.06-4.66-7.06-3.11-10.51,7-5.76,12-8.44,7.77-3.84,11.26-7.68,6.21-5.37,6.21-9.21.74-9.21-2.35-7.68-2.7,5-4.64,8.06-5,6.53-9.32,8.06-6.6,0-8.54,2.69-2.4,6.56-5.08,8.08-4.24.78-6.18,0-3.1-4.24-4.66-5.39-3.1-4.23-7.37-5.38-8.93-2.68-10.49-5-2.71-6.9-3.88-8.82-3.11-1.15-3.49.76-1.95,5.76,0,8.45,7.76,9.21,10.87,10.36,11.26,5.37,12.81,6.91,3.88,3.84,3.88,6.52-2.33,8.83-3.88,10-11.65,7.9-15.92,8.75-9.32,1.83-12,0-23.3-22.56-22.52-20.65,3.49,6.91,3.1,8.83-1.55,4.22,0,5.37,9.32,3.84,11.65,5.76,5.44,11.52,7,11.9,4.27-.77,6.21-2.3,4.27-3.84,8.15-4.61,12.82-.77,15.92,0a66.55,66.55,0,0,1,7,2.3,66.39,66.39,0,0,1,8.94-2.68c2.72-.39,11.26-.77,14.37.38s7.38,2.69,8.93,4.22,1.55,2.45,3.49,2.76,2.72-5.83,5.05-8.13,13.81-7.09,15.53-9.21c3.85-4.74.19-1.91.19-6.51A17.24,17.24,0,0,1,266.68,274.28Z"/></svg>